<?xml version="1.0" encoding="UTF-8" standalone="no"?><!DOCTYPE svg PUBLIC "-//W3C//DTD SVG 1.1//EN" "http://www.w3.org/Graphics/SVG/1.1/DTD/svg11.dtd"><svg width="100%" height="100%" viewBox="0 0 675 109" version="1.1" xmlns="http://www.w3.org/2000/svg" xmlns:xlink="http://www.w3.org/1999/xlink" xml:space="preserve" xmlns:serif="http://www.serif.com/" style="fill-rule:evenodd;clip-rule:evenodd;stroke-linejoin:round;stroke-miterlimit:2;"><path id="Fill-4" d="M636.038,52.286c-9.6,-0 -13.661,3.619 -13.661,16.289c0,13.391 4.061,16.65 13.661,16.65c8.12,-0 15.133,-5.431 15.133,-16.65c-0,-9.413 -5.168,-16.289 -15.133,-16.289Zm-9.6,-19.545c13.291,0 19.565,4.705 24.733,11.219l-0,-42.71l23.626,0l-0,103.519l-23.626,0l-0,-10.496c-5.168,9.411 -11.442,12.668 -24.733,12.668c-19.563,0 -30.27,-14.479 -30.27,-38.366c0,-22.805 12.922,-35.834 30.27,-35.834Zm-77.52,19.545c-8.489,-0 -13.658,3.619 -13.658,16.289c-0,13.391 5.169,16.65 13.658,16.65c8.12,-0 11.444,-5.431 11.444,-16.65c-0,-9.413 -3.324,-16.289 -11.444,-16.289Zm45.035,36.556l2.215,0l-4.058,15.927c-2.955,0 -6.276,2.172 -11.446,2.172c-6.274,0 -14.765,-3.257 -20.302,-12.668c-3.324,9.411 -9.968,12.668 -19.933,12.668c-19.935,0 -32.117,-14.479 -32.117,-38.366c-0,-22.805 14.398,-35.834 32.117,-35.834c12.181,0 18.824,4.705 19.933,11.219l-0,-9.771l27.317,-0l0,49.949c0,4.704 1.476,5.791 4.431,5.791c1.843,0 1.843,0 1.843,-1.087Zm-128.091,-36.556c-6.646,-0 -12.553,1.81 -15.505,10.133l30.639,0c-2.954,-8.323 -5.537,-10.133 -15.134,-10.133Zm17.717,27.508l21.78,5.431c-7.013,15.562 -20.304,21.716 -39.497,21.716c-21.781,0 -39.131,-12.668 -39.131,-36.198c0,-24.973 17.35,-38.002 39.131,-38.002c17.717,0 39.497,8.324 39.497,35.834l0,6.877l-55.002,-0c2.952,8.686 8.859,13.39 15.505,13.39c9.597,0 12.18,-3.617 17.717,-9.048Zm-137.689,-78.544l23.626,0l-0,44.52c5.165,-8.324 13.656,-13.029 26.208,-13.029c14.027,0 24.364,6.877 24.364,23.164l-0,48.864l-25.84,0l0,-40.538c0,-5.069 -2.954,-11.945 -8.123,-11.945c-11.444,-0 -16.609,6.876 -16.609,21.716l-0,30.767l-23.626,0l-0,-103.519Zm-59.064,32.939l26.209,-0l-1.476,9.771c4.429,-6.514 11.446,-11.219 17.72,-11.219c6.643,0 9.967,1.448 13.289,4.705l-11.446,21.716c-1.843,-3.257 -4.059,-5.066 -8.117,-5.066c-7.017,-0 -9.97,5.066 -9.97,14.479l0,36.194l-26.209,0l0,-70.58Zm-51.68,18.097c-8.122,-0 -13.289,3.619 -13.289,16.289c-0,13.391 5.167,16.65 13.289,16.65c8.491,-0 14.765,-5.431 14.765,-16.65c0,-9.413 -6.274,-16.289 -14.765,-16.289Zm48.726,36.556l-4.798,15.927c-1.845,0 -7.013,2.172 -10.706,2.172c-6.644,0 -15.872,-3.257 -18.457,-12.668c-6.274,9.411 -12.919,12.668 -22.887,12.668c-17.35,0 -28.793,-14.479 -28.793,-38.366c-0,-22.805 11.443,-35.834 28.793,-35.834c12.92,0 19.565,4.705 21.781,11.219l-0,-9.771l25.839,-0l-0,49.949c-0,4.704 2.585,5.791 4.43,5.791c1.476,0 1.476,0 4.798,-1.087Zm-128.83,-36.556c-8.49,-0 -13.659,1.81 -14.766,10.133l27.685,0c0,-8.323 -4.798,-10.133 -12.919,-10.133Zm15.504,27.508l21.041,5.431c-6.276,15.562 -18.826,21.716 -36.545,21.716c-23.257,0 -39.131,-12.668 -39.131,-36.198c0,-24.973 15.874,-38.002 39.131,-38.002c15.504,0 36.545,8.324 36.545,35.834l0,6.877l-51.311,-0c0,8.686 6.276,13.39 14.766,13.39c7.013,0 12.919,-3.617 15.504,-9.048Zm-89.333,24.977l26.209,-0l-0,-103.521l-26.209,0l0,103.521Zm-41.713,-72.03c18.457,0 28.424,6.877 35.067,21.355l-18.826,10.135c-4.798,-8.326 -6.643,-11.945 -16.241,-11.945c-8.861,-0 -12.183,6.876 -12.183,16.289c0,13.391 3.322,20.267 12.183,20.267c6.644,0 13.289,-4.704 16.241,-13.39l18.826,8.686c-4.428,14.117 -16.61,22.803 -35.067,22.803c-20.672,0 -39.5,-12.668 -39.5,-36.198c0,-24.973 15.874,-38.002 39.5,-38.002Z" style="fill-rule:nonzero;"/></svg>