<?xml version="1.0" encoding="UTF-8" standalone="no"?><!DOCTYPE svg PUBLIC "-//W3C//DTD SVG 1.1//EN" "http://www.w3.org/Graphics/SVG/1.1/DTD/svg11.dtd"><svg width="100%" height="100%" viewBox="0 0 884 167" version="1.1" xmlns="http://www.w3.org/2000/svg" xmlns:xlink="http://www.w3.org/1999/xlink" xml:space="preserve" xmlns:serif="http://www.serif.com/" style="fill-rule:evenodd;clip-rule:evenodd;stroke-linejoin:round;stroke-miterlimit:2;"><path id="Fill-1" d="M121.425,91.675c0,19.782 -17.019,25.416 -25.881,26.12c-1.705,0 -3.233,-1.643 -3.233,-3.287c-0.179,-1.703 1.29,-3.228 2.936,-3.228c0.939,0 20.016,-1.055 20.016,-19.605l0,-19.253c0,-0.351 -0.238,-5.342 -2.876,-10.33c-3.175,-6.397 -8.862,-9.566 -17.14,-9.566c-1.646,0 -2.936,-1.233 -2.936,-3.055c-0,-1.937 1.29,-3.227 2.936,-3.227l0.297,-0c13.377,-0 19.659,7.161 22.654,13.088c3.167,6.515 3.227,12.562 3.227,13.09l0,19.253Zm-39.33,-39.329c-0.351,-0 -5.283,0.18 -10.157,2.701c-6.274,3.232 -9.329,8.629 -9.329,16.847l-0,0.177l-0.239,2.76l0,8.332l-8.801,8.687l8.801,-0l0,19.488l18.614,0c1.819,0 3.167,1.467 3.167,3.17c0,1.703 -1.348,3.171 -3.167,3.171l-24.778,-0l0,-19.37l-17.839,-0l17.839,-17.669l0,-8.746c0,-13.559 7.342,-19.428 13.094,-22.539c6.393,-3.171 12.326,-3.171 12.795,-3.171c1.699,-0 3.107,1.293 3.107,2.936c0,2.054 -1.408,3.226 -3.107,3.226Zm-82.095,114.321l166.666,-0l0,-166.667l-166.666,-0l-0,166.667Z" style="fill-rule:nonzero;"/><path id="Fill-4" d="M843.355,82.702c-9.6,0 -13.661,3.62 -13.661,16.29c0,13.39 4.061,16.649 13.661,16.649c8.12,0 15.133,-5.431 15.133,-16.649c-0,-9.413 -5.168,-16.29 -15.133,-16.29Zm-9.6,-19.544c13.291,0 19.565,4.705 24.733,11.219l-0,-42.71l23.626,-0l-0,103.519l-23.626,-0l-0,-10.496c-5.168,9.411 -11.442,12.668 -24.733,12.668c-19.563,-0 -30.27,-14.48 -30.27,-38.366c0,-22.806 12.922,-35.834 30.27,-35.834Zm-77.52,19.544c-8.489,0 -13.658,3.62 -13.658,16.29c-0,13.39 5.169,16.649 13.658,16.649c8.12,0 11.444,-5.431 11.444,-16.649c-0,-9.413 -3.324,-16.29 -11.444,-16.29Zm45.035,36.557l2.215,-0l-4.058,15.927c-2.955,-0 -6.276,2.172 -11.446,2.172c-6.274,-0 -14.765,-3.257 -20.302,-12.668c-3.324,9.411 -9.968,12.668 -19.933,12.668c-19.935,-0 -32.117,-14.48 -32.117,-38.366c-0,-22.806 14.398,-35.834 32.117,-35.834c12.181,0 18.824,4.705 19.933,11.219l-0,-9.771l27.317,-0l0,49.948c0,4.705 1.476,5.792 4.431,5.792c1.843,-0 1.843,-0 1.843,-1.087Zm-128.091,-36.557c-6.646,0 -12.552,1.81 -15.505,10.134l30.639,0c-2.954,-8.324 -5.537,-10.134 -15.134,-10.134Zm17.717,27.508l21.781,5.431c-7.014,15.563 -20.305,21.717 -39.498,21.717c-21.781,-0 -39.131,-12.668 -39.131,-36.198c0,-24.974 17.35,-38.002 39.131,-38.002c17.717,0 39.498,8.324 39.498,35.834l-0,6.876l-55.003,0c2.953,8.686 8.859,13.391 15.505,13.391c9.597,-0 12.18,-3.618 17.717,-9.049Zm-137.689,-78.543l23.626,-0l-0,44.519c5.165,-8.323 13.656,-13.028 26.209,-13.028c14.026,0 24.363,6.877 24.363,23.164l-0,48.864l-25.84,-0l0,-40.538c0,-5.069 -2.954,-11.946 -8.123,-11.946c-11.444,0 -16.609,6.877 -16.609,21.717l-0,30.767l-23.626,-0l-0,-103.519Zm-59.063,32.939l26.208,-0l-1.476,9.771c4.429,-6.514 11.446,-11.219 17.72,-11.219c6.643,0 9.967,1.448 13.289,4.705l-11.446,21.716c-1.843,-3.257 -4.058,-5.067 -8.117,-5.067c-7.017,0 -9.97,5.067 -9.97,14.48l0,36.194l-26.208,-0l-0,-70.58Zm-51.681,18.096c-8.122,0 -13.289,3.62 -13.289,16.29c-0,13.39 5.167,16.649 13.289,16.649c8.491,0 14.765,-5.431 14.765,-16.649c0,-9.413 -6.274,-16.29 -14.765,-16.29Zm48.726,36.557l-4.798,15.927c-1.845,-0 -7.013,2.172 -10.706,2.172c-6.644,-0 -15.872,-3.257 -18.457,-12.668c-6.274,9.411 -12.919,12.668 -22.887,12.668c-17.35,-0 -28.793,-14.48 -28.793,-38.366c-0,-22.806 11.443,-35.834 28.793,-35.834c12.92,0 19.566,4.705 21.781,11.219l-0,-9.771l25.839,-0l-0,49.948c-0,4.705 2.585,5.792 4.43,5.792c1.477,-0 1.477,-0 4.798,-1.087Zm-128.83,-36.557c-8.49,0 -13.659,1.81 -14.766,10.134l27.685,0c0,-8.324 -4.798,-10.134 -12.919,-10.134Zm15.504,27.508l21.041,5.431c-6.276,15.563 -18.826,21.717 -36.545,21.717c-23.257,-0 -39.131,-12.668 -39.131,-36.198c0,-24.974 15.874,-38.002 39.131,-38.002c15.504,0 36.545,8.324 36.545,35.834l0,6.876l-51.311,0c0,8.686 6.276,13.391 14.766,13.391c7.013,-0 12.919,-3.618 15.504,-9.049Zm-89.333,24.978l26.209,-0l-0,-103.521l-26.209,-0l0,103.521Zm-41.713,-72.03c18.457,0 28.424,6.877 35.068,21.354l-18.827,10.136c-4.797,-8.326 -6.643,-11.946 -16.241,-11.946c-8.861,0 -12.183,6.877 -12.183,16.29c0,13.39 3.322,20.267 12.183,20.267c6.644,-0 13.289,-4.705 16.241,-13.391l18.827,8.686c-4.429,14.118 -16.611,22.804 -35.068,22.804c-20.672,-0 -39.5,-12.668 -39.5,-36.198c0,-24.974 15.874,-38.002 39.5,-38.002Z" style="fill-rule:nonzero;"/></svg>