<?xml version="1.0" encoding="UTF-8" standalone="no"?><!DOCTYPE svg PUBLIC "-//W3C//DTD SVG 1.1//EN" "http://www.w3.org/Graphics/SVG/1.1/DTD/svg11.dtd"><svg width="100%" height="100%" viewBox="0 0 167 167" version="1.1" xmlns="http://www.w3.org/2000/svg" xmlns:xlink="http://www.w3.org/1999/xlink" xml:space="preserve" xmlns:serif="http://www.serif.com/" style="fill-rule:evenodd;clip-rule:evenodd;stroke-linejoin:round;stroke-miterlimit:2;"><path id="Fill-1" d="M121.426,91.675c-0,19.782 -17.02,25.416 -25.881,26.12c-1.705,0 -3.234,-1.643 -3.234,-3.287c-0.178,-1.703 1.29,-3.228 2.937,-3.228c0.939,0 20.016,-1.055 20.016,-19.605l-0,-19.253c-0,-0.351 -0.239,-5.342 -2.877,-10.33c-3.175,-6.397 -8.861,-9.566 -17.139,-9.566c-1.647,0 -2.937,-1.233 -2.937,-3.055c0,-1.937 1.29,-3.227 2.937,-3.227l0.297,-0c13.376,-0 19.659,7.161 22.653,13.088c3.167,6.515 3.228,12.562 3.228,13.09l-0,19.253Zm-39.33,-39.329c-0.351,-0 -5.284,0.18 -10.158,2.701c-6.274,3.232 -9.329,8.629 -9.329,16.847l0,0.177l-0.238,2.76l-0,8.332l-8.802,8.687l8.802,-0l-0,19.488l18.614,0c1.819,0 3.167,1.467 3.167,3.17c-0,1.703 -1.348,3.171 -3.167,3.171l-24.778,-0l-0,-19.37l-17.84,-0l17.84,-17.669l-0,-8.746c-0,-13.559 7.341,-19.428 13.094,-22.539c6.392,-3.171 12.325,-3.171 12.795,-3.171c1.699,-0 3.107,1.293 3.107,2.936c-0,2.054 -1.408,3.226 -3.107,3.226Zm-82.096,114.321l166.667,-0l-0,-166.667l-166.667,-0l0,166.667Z" style="fill:#fff;fill-rule:nonzero;"/></svg>